

<svg style="display:none;" xmlns="http://www.w3.org/2000/svg" xmlns:xlink="http://www.w3.org/1999/xlink" xmlns:ev="http://www.w3.org/2001/xml-events">

    <symbol id="facebook" viewBox=" 0 0 320 512">
        <g>
            <path d="M279.14 288l14.22-92.66h-88.91v-60.13c0-25.35 
            12.42-50.06 52.24-50.06h40.42V6.26S260.43 0 225.36 
            0c-73.22 0-121.08 44.38-121.08 124.72v70.62H22.89V288h81.39v224h100.17V288z
            " />
        </g>
    </symbol>

    <symbol id="twitter" viewBox="0 0 512 512">
        <g>
            <path d="M459.37 151.716c.325 4.548.325 9.097.325 
            13.645 0 138.72-105.583 298.558-298.558 298.558-59.452 0-114.68-17.219-161.137-47.106 
            8.447.974 16.568 1.299 25.34 1.299 49.055 0 94.213-16.568 130.274-44.832-46.132-.975-84.792-31.188-98.112-72.772 
            6.498.974 12.995 1.624 19.818 1.624 9.421 0 18.843-1.3 27.614-3.573-48.081-9.747-84.143-51.98-84.143-102.985v-1.299c13.969 
            7.797 30.214 12.67 47.431 13.319-28.264-18.843-46.781-51.005-46.781-87.391 0-19.492 5.197-37.36 14.294-52.954 51.655 63.675 
            129.3 105.258 216.365 109.807-1.624-7.797-2.599-15.918-2.599-24.04 0-57.828 46.782-104.934 104.934-104.934 30.213 0 57.502 
            12.67 76.67 33.137 23.715-4.548 46.456-13.32 66.599-25.34-7.798 24.366-24.366 44.833-46.132 57.827 21.117-2.273 41.584-8.122 
            60.426-16.243-14.292 20.791-32.161 39.308-52.628 54.253z
            " />
        </g>
    </symbol>

    <symbol id="linkedin" viewBox="0 0 448 512">
        <g>
            <path d="M100.28 448H7.4V148.9h92.88zM53.79 108.1C24.09 108.1 0 83.5 0 53.8a53.79 53.79 0 0 1 107.58 0c0 
            29.7-24.1 54.3-53.79 54.3zM447.9 448h-92.68V302.4c0-34.7-.7-79.2-48.29-79.2-48.29 0-55.69 37.7-55.69 
            76.7V448h-92.78V148.9h89.08v40.8h1.3c12.4-23.5 42.69-48.3 87.88-48.3 94 0 111.28 61.9 111.28 142.3V448z
            " />
        </g>
    </symbol>

    <symbol id="youtube" viewBox="0 0 576 512">
        <g>
            <path d="M549.655 124.083c-6.281-23.65-24.787-42.276-48.284-48.597C458.781 64 288 64 288 64S117.22 64 74.629 
            75.486c-23.497 6.322-42.003 24.947-48.284 48.597-11.412 42.867-11.412 132.305-11.412 132.305s0 89.438 11.412 132.305c6.281 23.65 
            24.787 41.5 48.284 47.821C117.22 448 288 448 288 448s170.78 0 213.371-11.486c23.497-6.321 42.003-24.171 48.284-47.821 11.412-42.867 
            11.412-132.305 11.412-132.305s0-89.438-11.412-132.305zm-317.51 213.508V175.185l142.739 81.205-142.739 81.201z
            " />
        </g>
    </symbol>

    <symbol id="pinterest" viewBox="0 0 496 512">
        <g>
            <path d="M496 256c0 137-111 248-248 248-25.6 0-50.2-3.9-73.4-11.1 10.1-16.5 25.2-43.5 30.8-65 3-11.6 15.4-59 
            15.4-59 8.1 15.4 31.7 28.5 56.8 28.5 74.8 0 128.7-68.8 128.7-154.3 0-81.9-66.9-143.2-152.9-143.2-107 0-163.9 71.8-163.9 
            150.1 0 36.4 19.4 81.7 50.3 96.1 4.7 2.2 7.2 1.2 8.3-3.3.8-3.4 5-20.3 6.9-28.1.6-2.5.3-4.7-1.7-7.1-10.1-12.5-18.3-35.3-18.3-56.6 
            0-54.7 41.4-107.6 112-107.6 60.9 0 103.6 41.5 103.6 100.9 0 67.1-33.9 113.6-78 113.6-24.3 0-42.6-20.1-36.7-44.8 7-29.5 20.5-61.3 
            20.5-82.6 0-19-10.2-34.9-31.4-34.9-24.9 0-44.9 25.7-44.9 60.2 0 22 7.4 36.8 7.4 36.8s-24.5 103.8-29 123.2c-5 21.4-3 51.6-.9 71.2C65.4 
            450.9 0 361.1 0 256 0 119 111 8 248 8s248 111 248 248z
            " />
        </g>
    </symbol>

    <symbol id="button-search" viewBox="0 0 20 22">
        <g>
            <path d="M19.993,19.980 L18.949,21.027 L13.182,15.243 C12.850,15.542 12.486,15.809 12.088,16.041 C11.690,16.274 11.276,16.473 10.845,16.639 
            C10.414,16.806 9.958,16.931 9.478,17.013 C8.997,17.096 8.525,17.138 8.061,17.138 C6.934,17.138 5.881,16.922 4.904,16.490 C3.926,16.058 
            3.072,15.476 2.344,14.745 C1.614,14.014 1.043,13.158 0.629,12.177 C0.214,11.197 0.007,10.158 0.007,9.061 C0.007,7.931 0.214,6.876 0.629,5.895 
            C1.043,4.915 1.614,4.059 2.344,3.327 C3.072,2.596 3.926,2.023 4.904,1.607 C5.881,1.192 6.934,0.984 8.061,0.984 C9.155,0.984 10.190,1.192 
            11.168,1.607 C12.146,2.023 12.999,2.596 13.729,3.327 C14.457,4.059 15.038,4.915 15.469,5.895 C15.899,6.876 16.115,7.931 16.115,9.061 C16.115,9.527 
            16.073,10.000 15.991,10.482 C15.908,10.964 15.783,11.421 15.618,11.853 C15.452,12.285 15.253,12.700 15.021,13.099 C14.789,13.498 14.524,13.864 
            14.226,14.196 L19.993,19.980 L19.993,19.980 ZM0.852,9.061 C0.852,10.058 1.034,10.989 1.399,11.853 C1.763,12.717 2.277,13.482 2.940,14.146 
            C3.603,14.812 4.374,15.335 5.252,15.717 C6.130,16.099 7.067,16.290 8.061,16.290 C9.055,16.290 9.983,16.099 10.845,15.717 C11.707,15.335 
            12.469,14.812 13.132,14.146 C13.795,13.482 14.317,12.717 14.698,11.853 C15.079,10.989 15.270,10.058 15.270,9.061 C15.270,8.064 15.079,7.125 
            14.698,6.244 C14.317,5.364 13.795,4.591 13.132,3.926 C12.469,3.261 11.707,2.746 10.845,2.380 C9.983,2.015 9.055,1.831 8.061,1.831 C7.067,1.831 
            6.130,2.015 5.252,2.380 C4.374,2.746 3.603,3.261 2.940,3.926 C2.277,4.591 1.763,5.364 1.399,6.244 C1.034,7.125 0.852,8.064 0.852,9.061 L0.852,9.061 Z
            " />
        </g>
    </symbol>

</svg>

    


